<svg xmlns="http://www.w3.org/2000/svg" viewBox="0 0 233.1 105.5"><g id="Capa_2" data-name="Capa 2"><g id="Capa_1-2" data-name="Capa 1"><circle cx="9.1" cy="74.6" r="9.1"/><path d="M122.2,78.1a3.4,3.4,0,0,1-1.9-1.6,10.4,10.4,0,0,1-.5-3.5V0h-4L98.7,2.7V6.4h3.6a2.9,2.9,0,0,1,2.5.9c.5.6.7,1.9.7,3.8V73a10.5,10.5,0,0,1-.4,3.4,2.9,2.9,0,0,1-2,1.7,18.8,18.8,0,0,1-4.8.4,23.2,23.2,0,0,1-5.2-.4,3.4,3.4,0,0,1-1.9-1.6,10.4,10.4,0,0,1-.5-3.5V0h-4L69.6,2.7V6.4h3.6a2.9,2.9,0,0,1,2.5.9c.5.6.7,1.9.7,3.8V73a10.2,10.2,0,0,1-.5,3.4A2.5,2.5,0,0,1,74,78.1a18.8,18.8,0,0,1-4.8.4,40.8,40.8,0,0,1-6.6-.4,5.1,5.1,0,0,1-2.4-1.6A23,23,0,0,1,58.5,73L35.6,8.9h-10L23.4,18,35.3,51.7H15l-1,4H36.7l6.4,18.1a5.3,5.3,0,0,1,0,3.3c-.3.9-1.3,1.4-2.8,1.4H35.2v3.7h91.4V78.5A16.3,16.3,0,0,1,122.2,78.1Z"/><path d="M179.5,55.4a41.2,41.2,0,0,0-1.3-10.9,23.7,23.7,0,0,0-4.2-8.4,19.1,19.1,0,0,0-7.3-5.4,28.4,28.4,0,0,0-11.2-2,27,27,0,0,0-13.3,3,19.2,19.2,0,0,0-8.3,9.2c-1.9,4.1-2.8,9.2-2.8,15.3,0,9,2,15.8,6.1,20.3s10.2,6.8,18.3,6.8c5.1,0,9.2-.8,12.2-2.3a18.4,18.4,0,0,0,7-5.8,37.5,37.5,0,0,0,3.9-7l-3.5-2a18.9,18.9,0,0,1-3.4,5.5,14.2,14.2,0,0,1-4.9,3.5,16,16,0,0,1-6.5,1.2,14.5,14.5,0,0,1-7-1.5,10.5,10.5,0,0,1-4.2-4.4,23.2,23.2,0,0,1-2.3-7.3,43.1,43.1,0,0,1-.7-6.6h33.4Zm-33.4-3a58.5,58.5,0,0,1,1.1-11,12,12,0,0,1,3.1-6.5,7.9,7.9,0,0,1,5.4-1.9c2.5,0,4.3.7,5.5,2.2a14.3,14.3,0,0,1,2.5,6.7,77.3,77.3,0,0,1,.6,10.5Z"/><path d="M214.3,30v3.6h4a2.2,2.2,0,0,1,2,.9,2.7,2.7,0,0,1,0,2.5L209.7,65.8h-.3L199.1,37.3c-.5-1.3-.6-2.2-.2-2.8a2,2,0,0,1,1.8-.9h3.6V30H176.2v3.6a19.6,19.6,0,0,1,4,.3,3.7,3.7,0,0,1,2.1,1.2,17.2,17.2,0,0,1,1.6,3.1l19,46.1-2.4,6.4a29.1,29.1,0,0,1-4.1,8.2,5.7,5.7,0,0,1-4.4,2.4,3.3,3.3,0,0,1-1.5-.3,1.1,1.1,0,0,1-.5-.9,1.7,1.7,0,0,1,.5-1.3,7.3,7.3,0,0,0,.9-1.3,7.5,7.5,0,0,0,.3-2.3,6.5,6.5,0,0,0-1.6-4.6,6,6,0,0,0-4.6-1.8,6.4,6.4,0,0,0-5,2.3,7.2,7.2,0,0,0-2.1,5.2,7.8,7.8,0,0,0,1.5,4.7,9.1,9.1,0,0,0,3.9,3.3,12.6,12.6,0,0,0,5.5,1.2,12.3,12.3,0,0,0,7.1-1.9,16.4,16.4,0,0,0,4.9-5.5,58.2,58.2,0,0,0,3.7-7.9l3.7-9.4,16.6-41.1a14.4,14.4,0,0,1,2.1-4,4.6,4.6,0,0,1,2.3-1.7,14.4,14.4,0,0,1,3.4-.4V30Z"/></g></g></svg>